<svg xmlns="http://www.w3.org/2000/svg" version="1.1" xmlns:xlink="http://www.w3.org/1999/xlink" width="200" height="200"><svg xmlns="http://www.w3.org/2000/svg" version="1.1" xmlns:xlink="http://www.w3.org/1999/xlink" width="200" height="200"><svg xmlns="http://www.w3.org/2000/svg" version="1.1" xmlns:xlink="http://www.w3.org/1999/xlink" viewBox="0 0 200 200"><rect width="200" height="200" fill="url('#gradient')"></rect><defs><linearGradient id="gradient" gradientTransform="rotate(45 0.5 0.5)"><stop offset="0%" stop-color="#f39c6d"></stop><stop offset="100%" stop-color="#8c83a8"></stop></linearGradient></defs><g><g fill="#ff6b00" transform="matrix(4.909962706446457,0,0,4.909962706446457,6.912029277725807,134.8896582394632)" stroke="#ff450d" stroke-width="0.2"><path d="M8.41-3.78L8.41-3.78Q8.41-4.53 7.88-4.95Q7.34-5.37 6.01-5.82Q4.67-6.27 3.82-6.69L3.82-6.69Q1.05-8.05 1.05-10.42L1.05-10.42Q1.05-11.60 1.74-12.50Q2.43-13.41 3.69-13.91Q4.95-14.41 6.52-14.41L6.52-14.41Q8.06-14.41 9.27-13.87Q10.49-13.32 11.16-12.31Q11.84-11.30 11.84-10L11.84-10L8.42-10Q8.42-10.87 7.89-11.35Q7.35-11.83 6.45-11.83L6.45-11.83Q5.53-11.83 5.00-11.42Q4.46-11.02 4.46-10.39L4.46-10.39Q4.46-9.84 5.05-9.40Q5.63-8.96 7.11-8.48Q8.58-8.01 9.53-7.46L9.53-7.46Q11.84-6.13 11.84-3.80L11.84-3.80Q11.84-1.93 10.43-0.87Q9.02 0.20 6.57 0.20L6.57 0.20Q4.84 0.20 3.44-0.42Q2.04-1.04 1.33-2.12Q0.63-3.20 0.63-4.61L0.63-4.61L4.06-4.61Q4.06-3.47 4.65-2.92Q5.24-2.38 6.57-2.38L6.57-2.38Q7.42-2.38 7.92-2.75Q8.41-3.12 8.41-3.78ZM18.27 0L13.59 0L13.59-14.22L18.17-14.22Q20.06-14.22 21.56-13.36Q23.07-12.51 23.91-10.95Q24.76-9.39 24.77-7.46L24.77-7.46L24.77-6.81Q24.77-4.85 23.94-3.31Q23.12-1.76 21.62-0.88Q20.12-0.01 18.27 0L18.27 0ZM18.17-11.57L17.02-11.57L17.02-2.64L18.21-2.64Q19.69-2.64 20.48-3.69Q21.27-4.74 21.27-6.81L21.27-6.81L21.27-7.42Q21.27-9.48 20.48-10.53Q19.69-11.57 18.17-11.57L18.17-11.57ZM33.86-3.78L33.86-3.78Q33.86-4.53 33.33-4.95Q32.79-5.37 31.46-5.82Q30.12-6.27 29.27-6.69L29.27-6.69Q26.50-8.05 26.50-10.42L26.50-10.42Q26.50-11.60 27.19-12.50Q27.88-13.41 29.14-13.91Q30.40-14.41 31.97-14.41L31.97-14.41Q33.51-14.41 34.72-13.87Q35.94-13.32 36.61-12.31Q37.29-11.30 37.29-10L37.29-10L33.87-10Q33.87-10.87 33.33-11.35Q32.80-11.83 31.89-11.83L31.89-11.83Q30.98-11.83 30.44-11.42Q29.91-11.02 29.91-10.39L29.91-10.39Q29.91-9.84 30.50-9.40Q31.08-8.96 32.56-8.48Q34.03-8.01 34.98-7.46L34.98-7.46Q37.29-6.13 37.29-3.80L37.29-3.80Q37.29-1.93 35.88-0.87Q34.47 0.20 32.02 0.20L32.02 0.20Q30.29 0.20 28.89-0.42Q27.49-1.04 26.78-2.12Q26.07-3.20 26.07-4.61L26.07-4.61L29.51-4.61Q29.51-3.47 30.10-2.92Q30.69-2.38 32.02-2.38L32.02-2.38Q32.87-2.38 33.36-2.75Q33.86-3.12 33.86-3.78Z"></path></g></g></svg></svg><style>@media (prefers-color-scheme: light) { :root { filter: none; } }
@media (prefers-color-scheme: dark) { :root { filter: none; } }
</style></svg>